<svg width="240" height="240" viewBox="0 0 240 240" fill="none" xmlns="http://www.w3.org/2000/svg">
<path d="M120 20C64.77 20 20 64.77 20 120C20 164.435 49.005 202.055 89.1 215.08H150.9C190.995 202.055 220 164.435 220 120C220 64.77 175.23 20 120 20Z" fill="white"/>
<path opacity="0.05" d="M150.05 209.98L150 180.99C150 176.295 148.9 171.71 146.79 167.555C174.995 161.89 188.72 145.215 188.72 116.67C188.72 105.395 185.395 95.44 178.84 87.07C179.34 85.485 179.71 83.845 179.94 82.165C180.88 75.32 179.825 70.845 178.975 67.245L178.84 66.665C177.91 62.685 176.795 59.845 176.75 59.725L176.195 58.315L175.64 56.905L174.13 56.745L172.615 56.585C172.615 56.585 171.62 56.48 170.11 56.48C168.015 56.48 164.91 56.69 161.975 57.685L160.995 58.015C157.295 59.26 153.8 60.44 148.91 63.36C147.48 64.215 145.915 65.19 144.24 66.28C136.67 64.405 128.525 63.45 120 63.45C111.39 63.45 103.175 64.41 95.5551 66.305C93.8601 65.205 92.2851 64.22 90.8451 63.36C85.9551 60.44 82.4601 59.265 78.7601 58.015L77.7801 57.685C74.8551 56.69 71.7451 56.48 69.6501 56.48C68.1401 56.48 67.1451 56.585 67.1451 56.585L65.6351 56.745L64.1351 56.9L63.5751 58.305L63.0101 59.72C62.9601 59.85 61.8451 62.69 60.9151 66.675L60.7801 67.25C59.9301 70.845 58.8751 75.325 59.8151 82.165C60.0551 83.895 60.4401 85.59 60.9651 87.22C54.5401 95.55 51.2851 105.45 51.2851 116.67C51.2851 145.145 65.0251 161.81 93.2701 167.52C92.3001 169.46 91.5451 171.51 91.0101 173.64C90.0251 173.975 89.1201 174.2 88.3201 174.325C87.1301 174.505 85.8851 174.595 84.6251 174.595C81.1951 174.595 78.5001 173.925 77.4501 173.3C75.8851 172.37 73.0901 169.665 70.3801 165.71C68.0651 162.335 64.4551 157.92 60.4201 156.075C56.9301 154.48 53.2351 153.565 50.2751 153.565C49.5851 153.565 48.9501 153.615 48.3951 153.705C45.8101 154.115 43.6501 155.535 42.4751 157.605C41.4601 159.39 41.3001 161.47 42.0351 163.31C43.1301 166.05 46.2901 168.235 48.7501 169.585C49.9601 170.25 52.5751 172.68 54.1001 175.13C55.2451 176.97 55.7751 178.28 56.5101 180.09C56.9451 181.165 57.4251 182.335 58.0751 183.75C60.4251 188.86 67.7601 193.37 68.5901 193.865C72.6201 196.28 79.3951 197.055 84.3751 197.28L84.9901 197.295H84.9951C86.1951 197.295 87.8451 197.18 90.0151 196.94V210.005C90.0251 212.65 87.3301 213.25 83.7651 213.195L86.5001 214.115C96.9751 217.86 108.225 220 120 220C131.775 220 143.025 217.86 153.515 214.12L157.03 212.81C153.475 212.69 150.08 212.11 150.05 209.98Z" fill="black"/>
<path opacity="0.07" d="M153.905 213.985C151.875 214.22 147.5 213.44 147.5 210.01V180.99C147.5 175.52 145.86 170.235 142.82 165.73C172.395 160.945 186.215 145.265 186.215 116.67C186.215 105.485 182.785 95.7 176.02 87.56C176.705 85.735 177.185 83.81 177.46 81.825C178.335 75.445 177.38 71.395 176.54 67.82L176.405 67.24C175.515 63.435 174.465 60.755 174.42 60.645L173.865 59.235L172.35 59.075C172.35 59.075 171.46 58.98 170.105 58.98C168.2 58.98 165.385 59.165 162.775 60.055L161.795 60.385C158.225 61.59 154.85 62.725 150.19 65.505C148.53 66.495 146.68 67.66 144.685 68.975C137.02 66.97 128.725 65.95 120 65.95C111.19 65.95 102.825 66.975 95.1049 69C93.0899 67.675 91.2299 66.505 89.5599 65.505C84.8999 62.725 81.5249 61.585 77.9549 60.385L76.9749 60.055C74.3699 59.17 71.5499 58.98 69.6449 58.98C68.2899 58.98 67.3999 59.075 67.3999 59.075L65.8899 59.235L65.3249 60.65C65.2799 60.76 64.2299 63.44 63.3399 67.245L63.2049 67.825C62.3599 71.4 61.4049 75.445 62.2849 81.825C62.5649 83.86 63.0649 85.83 63.7749 87.695C57.1399 95.795 53.7799 105.53 53.7799 116.67C53.7799 145.185 67.6099 160.86 97.2099 165.7C95.2349 168.65 93.8549 171.975 93.1449 175.52C91.4949 176.17 89.9999 176.6 88.6899 176.8C87.3749 177 86.0049 177.1 84.6199 177.1C81.1699 177.1 77.8549 176.455 76.1699 175.455C73.9699 174.15 70.8849 170.885 68.3099 167.13C66.5599 164.58 63.0749 160.045 59.3699 158.355C56.1949 156.905 52.8799 156.07 50.2649 156.07C49.7149 156.07 49.2149 156.11 48.7749 156.18C46.9449 156.47 45.4349 157.44 44.6349 158.85C43.9949 159.97 43.8899 161.265 44.3399 162.39C45.2349 164.63 48.5499 166.64 49.9349 167.4C51.6099 168.32 54.5299 171.12 56.2049 173.82C57.4599 175.84 58.0549 177.305 58.8099 179.155C59.2349 180.2 59.6999 181.34 60.3299 182.715C61.9849 186.31 67.0949 190.075 69.8549 191.73C73.6249 193.99 80.6249 194.62 84.4649 194.79L85.0199 194.8C86.5149 194.8 89.0199 194.575 92.4949 194.125V210.01C92.4949 213.905 87.5399 214.06 86.3249 214.06C86.1699 214.06 88.8399 214.98 88.8399 214.98C98.6549 218.2 109.11 220 120 220C130.89 220 141.345 218.2 151.155 214.985C151.155 214.985 154.06 213.965 153.905 213.985Z" fill="black"/>
<path d="M183.72 116.67C183.72 105.12 179.81 95.5401 173.135 88.0301C173.86 86.4051 174.615 84.2251 174.99 81.4851C175.85 75.2351 174.835 71.4851 173.975 67.8151C173.115 64.1451 172.1 61.5651 172.1 61.5651C172.1 61.5651 167.49 61.0951 163.585 62.4251C159.68 63.7551 156.32 64.7701 151.475 67.6601C149.21 69.0101 146.93 70.4901 145.125 71.6901C137.41 69.5501 128.925 68.4501 120 68.4501C110.995 68.4501 102.435 69.5551 94.6649 71.7101C92.8549 70.5051 90.5599 69.0151 88.2799 67.6551C83.4349 64.7651 80.0749 63.7501 76.1699 62.4201C72.2649 61.0901 67.6549 61.5601 67.6549 61.5601C67.6549 61.5601 66.6399 64.1401 65.7799 67.8101C64.9199 71.4801 63.9049 75.2301 64.7649 81.4801C65.1499 84.2901 65.9299 86.5101 66.6749 88.1451C60.1249 95.6101 56.2849 105.13 56.2849 116.665C56.2849 146.58 72.4449 160.235 101.89 163.84C98.4549 167.47 96.1499 172.12 95.3749 177.295C93.4399 178.145 91.2099 178.945 89.0649 179.265C83.5449 180.1 77.7099 179.265 74.8999 177.6C72.0899 175.935 68.7549 172.185 66.2549 168.535C64.1449 165.455 61.0999 161.88 58.3399 160.62C54.6949 158.955 51.1499 158.33 49.1749 158.64C47.1949 158.955 46.2599 160.41 46.6749 161.455C47.0899 162.495 49.0699 164.06 51.1549 165.205C53.2399 166.35 56.4699 169.475 58.3449 172.495C60.4349 175.865 60.8449 177.81 62.6149 181.66C63.8599 184.37 68.1199 187.755 71.1549 189.575C73.7599 191.14 78.9649 192.03 84.5949 192.285C86.5399 192.375 91.1349 191.805 95.0099 191.255V210.005C95.0099 213.2 92.0849 215.63 89.0549 215.07C98.7799 218.34 109.165 220 120 220C130.83 220 141.215 218.34 150.95 215.08C147.925 215.635 145 213.205 145 210.01V180.99C145 174.345 142.365 168.34 138.135 163.865C167.365 160.355 183.72 147.025 183.72 116.67ZM56.1949 163.635C55.4249 163.24 55.0099 162.51 55.2699 161.995C55.5299 161.48 56.3699 161.385 57.1399 161.78C57.9099 162.175 58.3249 162.905 58.0649 163.42C57.8049 163.935 56.9649 164.03 56.1949 163.635ZM62.2549 167.41C61.8499 167.85 60.9799 167.71 60.3099 167.1C59.6399 166.49 59.4249 165.635 59.8299 165.195C60.2349 164.755 61.1049 164.895 61.7749 165.505C62.4449 166.115 62.6599 166.97 62.2549 167.41ZM66.0249 173.66C65.5149 174.02 64.6499 173.685 64.0949 172.91C63.5399 172.135 63.5049 171.21 64.0149 170.85C64.5249 170.49 65.3899 170.825 65.9449 171.6C66.4949 172.375 66.5349 173.3 66.0249 173.66ZM71.4399 178.365C71.0949 178.925 70.1149 178.95 69.2549 178.425C68.3949 177.9 67.9749 177.02 68.3199 176.46C68.6649 175.9 69.6449 175.875 70.5049 176.4C71.3649 176.925 71.7849 177.805 71.4399 178.365ZM76.5599 182.97C75.4949 182.84 74.7049 182.175 74.7949 181.485C74.8799 180.795 75.8149 180.345 76.8749 180.475C77.9399 180.605 78.7299 181.27 78.6399 181.96C78.5549 182.645 77.6249 183.1 76.5599 182.97ZM84.8149 184.165C83.6799 184.1 82.7949 183.45 82.8399 182.72C82.8849 181.99 83.8399 181.445 84.9749 181.51C86.1099 181.575 86.9949 182.225 86.9499 182.955C86.9049 183.69 85.9499 184.23 84.8149 184.165ZM92.6049 183.385C91.3949 183.385 90.4149 182.755 90.4149 181.98C90.4149 181.205 91.3949 180.575 92.6049 180.575C93.8149 180.575 94.7949 181.205 94.7949 181.98C94.7949 182.755 93.8099 183.385 92.6049 183.385Z" fill="black"/>
</svg>
